<svg width="293" height="15" viewBox="0 0 293 15" fill="none" xmlns="http://www.w3.org/2000/svg">
    <path fill-rule="evenodd" clip-rule="evenodd" d="M97.1356 1.32502C64.8251 1.0142 32.3828 2.15012 1.1088 6.91984C0.550815 7.00461 0.319179 7.17133 0.273526 7.20948C0.00637105 7.43553 -0.022423 7.6757 0.0113941 7.8735C0.0316843 7.99359 0.168703 8.50079 0.91775 8.55307C1.43515 8.58839 5.10762 8.34115 6.52456 8.27757C13.195 7.97946 19.8519 7.5542 26.5054 7.06254C41.5912 5.95205 56.6566 4.99133 71.7661 4.11678C80.2491 3.62512 88.7355 3.21821 97.2168 2.88478C117.62 3.08399 137.973 3.86106 157.945 4.66355C150.007 5.07186 142.713 5.48581 136.664 5.75425C126.465 6.20636 116.285 6.7404 106.106 7.44399C100.876 7.80427 95.6527 8.19563 90.4331 8.65763C89.8548 8.70991 88.5376 8.76359 87.9002 8.82716C87.6296 8.85259 87.4335 8.89357 87.3456 8.92183C86.7944 9.09985 86.7251 9.46434 86.7183 9.64801C86.7149 9.75962 86.7606 10.3686 87.6906 10.4872C130.931 16.0566 176.043 9.57738 219.438 14.9914C219.947 15.0549 220.424 14.7611 220.5 14.3344C220.576 13.9091 220.225 13.5107 219.714 13.4471C178.843 8.34821 136.448 13.8003 95.5243 9.79778C99.1004 9.50815 102.678 9.24677 106.259 8.99953C116.42 8.29735 126.582 7.76472 136.764 7.31261C147.011 6.85909 160.862 5.97324 175.361 5.41517C187.804 5.99443 200.24 6.64433 212.685 7.19533C217.935 7.42704 223.187 7.61919 228.435 7.85513C230.593 7.95121 236.144 8.35386 236.949 8.2041C237.574 8.08683 237.725 7.71244 237.762 7.52454C237.801 7.32109 237.777 7.06818 237.493 6.82659C237.405 6.75029 237.142 6.59206 236.601 6.46208C221.966 2.95967 198.003 3.01477 175.561 3.86105C170.733 3.635 165.906 3.42025 161.077 3.22669C150.022 2.78165 138.846 2.33519 127.605 1.98339C159.283 1.32925 190.976 1.51716 222.678 1.99046C235.988 2.18967 271.867 3.39059 285.997 4.45162C285.825 4.59997 285.723 4.80624 285.735 5.03088C285.759 5.46038 286.197 5.79381 286.712 5.77403C289.627 5.66101 291.313 5.5169 291.981 5.36855C292.397 5.27672 292.623 5.12978 292.728 5.03371C292.985 4.80201 293.033 4.55334 292.982 4.31739C292.95 4.17046 292.87 4.0094 292.688 3.86105C292.566 3.75933 292.268 3.60392 291.761 3.49796C286.207 2.34368 238.56 0.666632 222.712 0.429276C180.831 -0.195196 138.967 -0.322339 97.1356 1.32502ZM225.272 6.15408C217.088 5.22585 207.494 4.89948 197.486 4.92068C202.584 5.16792 207.684 5.40953 212.785 5.63558C216.946 5.82066 221.109 5.97889 225.272 6.15408ZM58.5369 3.34114C47.8 4.00235 37.0749 4.71723 26.3414 5.50842C25.102 5.59884 23.8643 5.68785 22.6249 5.77545C34.4947 4.56041 46.4879 3.7876 58.5369 3.34114Z" fill="#7FD4D8" />
</svg>