<?xml version="1.0" encoding="UTF-8"?>
<svg id="artwork" version="1.1" viewBox="0 0 238.96 70.87" xmlns="http://www.w3.org/2000/svg">
 <!-- Generator: Adobe Illustrator 29.8.3, SVG Export Plug-In . SVG Version: 2.1.1 Build 3)  -->
 <defs>
  <style>.st0 {
        fill: #4285f4;
      }

      .st1 {
        fill: #a6a6a6;
      }

      .st2 {
        stroke: #000;
        stroke-miterlimit: 10;
        stroke-width: .2px;
      }

      .st2, .st3 {
        fill: #000;
      }

      .st4 {
        fill: #34a853;
      }

      .st5 {
        fill: #fbbc04;
      }

      .st6 {
        fill: #ea4335;
      }</style>
 </defs>
 <path class="st2" d="M83.9,18.15c0,1.48-.44,2.67-1.32,3.55-1,1.05-2.3,1.57-3.9,1.57s-2.84-.53-3.91-1.59c-1.07-1.06-1.61-2.38-1.61-3.96s.54-2.89,1.61-3.96c1.07-1.06,2.38-1.6,3.91-1.6.76,0,1.49.15,2.18.44.69.3,1.25.69,1.66,1.19l-.93.94c-.7-.84-1.67-1.26-2.91-1.26-1.12,0-2.09.39-2.9,1.18s-1.22,1.81-1.22,3.06.41,2.28,1.22,3.06c.82.79,1.78,1.18,2.9,1.18,1.19,0,2.18-.4,2.97-1.19.51-.52.81-1.23.89-2.15h-3.86v-1.28h5.15c.05.28.07.54.07.8Z"/>
 <path class="st2" d="m92.07 13.71h-4.84v3.37h4.37v1.28h-4.37v3.37h4.84v1.31h-6.21v-10.63h6.21v1.31z"/>
 <path class="st2" d="m97.83 23.03h-1.37v-9.32h-2.97v-1.31h7.3v1.31h-2.97s0 9.32 0 9.32z"/>
 <path class="st2" d="m106.08 23.03v-10.63h1.36v10.63h-1.36z"/>
 <path class="st2" d="m113.51 23.03h-1.37v-9.32h-2.97v-1.31h7.3v1.31h-2.97s0 9.32 0 9.32z"/>
 <path class="st2" d="m130.3 21.66c-1.05 1.08-2.34 1.61-3.9 1.61s-2.85-0.54-3.9-1.61-1.57-2.39-1.57-3.94 0.52-2.87 1.57-3.94c1.04-1.08 2.34-1.61 3.9-1.61s2.84 0.54 3.89 1.62 1.57 2.39 1.57 3.93-0.52 2.87-1.57 3.94zm-6.78-0.89c0.79 0.8 1.75 1.19 2.89 1.19s2.1-0.4 2.89-1.19c0.79-0.8 1.18-1.81 1.18-3.05s-0.4-2.26-1.18-3.05c-0.78-0.8-1.75-1.19-2.89-1.19s-2.1 0.4-2.89 1.19c-0.78 0.8-1.18 1.81-1.18 3.05s0.4 2.26 1.18 3.05z"/>
 <path class="st2" d="M133.79,23.03v-10.63h1.66l5.17,8.27h.06l-.06-2.05v-6.22h1.37v10.63h-1.43l-5.41-8.67h-.06l.06,2.05v6.62h-1.37,0Z"/>
 <path class="st3" d="m120.61 38.54c-4.17 0-7.56 3.17-7.56 7.53s3.4 7.53 7.56 7.53 7.56-3.2 7.56-7.53-3.4-7.53-7.56-7.53zm0 12.1c-2.28 0-4.25-1.88-4.25-4.57s1.97-4.57 4.25-4.57 4.25 1.85 4.25 4.57-1.97 4.57-4.25 4.57zm-16.5-12.1c-4.17 0-7.56 3.17-7.56 7.53s3.4 7.53 7.56 7.53 7.56-3.2 7.56-7.53-3.4-7.53-7.56-7.53zm0 12.1c-2.28 0-4.25-1.88-4.25-4.57s1.97-4.57 4.25-4.57 4.25 1.85 4.25 4.57-1.97 4.57-4.25 4.57zm-19.63-9.79v3.2h7.65c-0.23 1.8-0.83 3.11-1.74 4.03-1.11 1.11-2.85 2.34-5.91 2.34-4.71 0-8.39-3.8-8.39-8.51s3.68-8.51 8.39-8.51c2.54 0 4.4 1 5.76 2.28l2.26-2.26c-1.91-1.83-4.45-3.22-8.02-3.22-6.45 0-11.87 5.25-11.87 11.7s5.42 11.7 11.87 11.7c3.48 0 6.11-1.14 8.16-3.28 2.11-2.11 2.77-5.08 2.77-7.48 0-0.74-0.06-1.43-0.17-2h-10.76zm80.27 2.48c-0.63-1.68-2.54-4.8-6.45-4.8s-7.11 3.05-7.11 7.53c0 4.22 3.2 7.53 7.48 7.53 3.45 0 5.45-2.11 6.28-3.34l-2.57-1.71c-0.86 1.26-2.03 2.08-3.71 2.08s-2.88-0.77-3.65-2.28l10.08-4.17-0.34-0.86zm-10.28 2.51c-0.09-2.91 2.26-4.4 3.94-4.4 1.31 0 2.43 0.66 2.8 1.6l-6.74 2.8zm-8.19 7.31h3.31v-22.15h-3.31v22.15zm-5.42-12.93h-0.11c-0.74-0.88-2.17-1.68-3.97-1.68-3.77 0-7.22 3.31-7.22 7.56s3.45 7.51 7.22 7.51c1.8 0 3.22-0.8 3.97-1.71h0.11v1.08c0 2.88-1.54 4.42-4.03 4.42-2.03 0-3.28-1.46-3.8-2.68l-2.88 1.2c0.83 2 3.03 4.45 6.68 4.45 3.88 0 7.16-2.28 7.16-7.85v-13.53h-3.14v1.23zm-3.8 10.42c-2.28 0-4.2-1.91-4.2-4.54s1.91-4.6 4.2-4.6 4.03 1.94 4.03 4.6-1.77 4.54-4.03 4.54zm43.2-19.64h-7.92v22.15h3.31v-8.39h4.62c3.66 0 7.27-2.65 7.27-6.88s-3.6-6.88-7.27-6.88zm0.08 10.68h-4.7v-7.59h4.7c2.47 0 3.87 2.05 3.87 3.8s-1.4 3.8-3.87 3.8zm20.43-3.18c-2.39 0-4.87 1.05-5.9 3.39l2.94 1.23c0.63-1.23 1.79-1.62 3.02-1.62 1.71 0 3.45 1.03 3.48 2.85v0.23c-0.6-0.34-1.88-0.86-3.45-0.86-3.16 0-6.38 1.74-6.38 4.99 0 2.96 2.59 4.87 5.5 4.87 2.22 0 3.45-1 4.22-2.16h0.11v1.71h3.19v-8.49c0-3.93-2.94-6.13-6.73-6.13zm-0.39 12.13c-1.08 0-2.59-0.54-2.59-1.88 0-1.71 1.88-2.37 3.5-2.37 1.45 0 2.14 0.31 3.02 0.74-0.26 2.05-2.02 3.5-3.93 3.5zm18.74-11.65-3.79 9.6h-0.11l-3.93-9.6h-3.56l5.9 13.42-3.36 7.47h3.45l9.09-20.89h-3.68zm-29.77 14.17h3.31v-22.15h-3.31v22.15z"/>
 <path class="st6" d="M36.6,34.41l-18.86,20.02s0,0,0,.01c.58,2.17,2.56,3.77,4.92,3.77.94,0,1.83-.26,2.58-.7l.06-.04,21.23-12.25-9.94-10.82Z"/>
 <path class="st5" d="m55.68 31h-0.02s-9.17-5.33-9.17-5.33l-10.33 9.19 10.36 10.36 9.12-5.26c1.6-0.86 2.68-2.55 2.68-4.49s-1.07-3.61-2.65-4.47z"/>
 <path class="st0" d="M17.73,16.44c-.11.42-.17.86-.17,1.31v35.38c0,.45.06.89.17,1.31l19.51-19.51-19.51-18.49Z"/>
 <path class="st4" d="m36.74 35.43 9.76-9.76-21.21-12.3c-0.77-0.46-1.67-0.73-2.63-0.73-2.36 0-4.34 1.6-4.92 3.78s19 19 19 19z"/>
</svg>
