<?xml version="1.0" encoding="UTF-8"?>
<!-- Created with Inkscape (http://www.inkscape.org/) -->
<svg width="512" height="512" version="1.1" viewBox="0 0 135.47 135.47" xmlns="http://www.w3.org/2000/svg">
 <g transform="matrix(.99023 0 0 .99023 .66146 .66146)">
  <circle cx="67.733" cy="67.733" r="67.733" fill="#0fb6bf" stroke-width=".2504"/>
 </g>
 <g transform="matrix(.98882 0 0 .98882 .94244 .73085)" fill="#fff" stroke-width=".28858" aria-label="M">
  <path d="m56.804 5.0137q1.8036 6.7815 1.8036 7.2865l0.72144-0.36072q0 0.14429-0.36072 1.4429 1.2986 6.8537 1.8757 6.8537 0.6493-0.36072 1.0822-0.36072v0.72144h-1.0822q0.72144 6.2765 1.8036 9.8116 0 0.36072-0.36072 0.36072 0.72144 1.2264 0.72144 1.8036 0 0.36072-0.36072 0.36072 0.86573 6.9258 1.4429 6.9258 0 0.36072-0.36072 0.36072 0.86573 6.493 1.4429 6.493l-0.36072 0.79358v0.36072q0.93787-1.01 4.6894-10.172 4.3286-7.2144 8.008-10.894 1.8036-2.02 2.8858-3.6072 2.525 1.8036 2.8858 1.8036v0.72144l-0.72144-0.36072h-1.4429v0.72144q4.3286 0.72144 5.4829 1.8036 0.07214-0.72144 0.72144-0.72144h0.36072q0 2.1643 3.6072 6.493 1.4429 6.2044 2.525 6.2044h0.36072v1.4429h-0.72144q0.43286 1.8036 1.0822 1.8036 0 0.36072-0.36072 0.36072 1.9479 11.327 3.2465 14.14 0 0.72144 1.8036 1.8036l-1.0822 1.515v0.36072h0.36072l0.72144-0.36072 0.43286 0.72144q-1.2264 0.72144-1.8757 0.72144 0 0.86573 0.72144 3.2465h-0.36072q0.86573 5.7715 1.515 5.7715-0.43286 8.0801-2.2365 14.862h-1.4429q-0.36072-2.3086-1.0822-3.9679h0.36072q-0.72144-2.1643-1.4429-2.1643h-0.72144v0.72144l0.36072 2.1643q-0.36072 1.8036-0.72144 1.8036l-1.8036-0.36072q-0.36072 0.72144-0.36072 1.0822 0 0.21643 0.72144 5.8437 0 3.2465-1.0822 3.2465v2.8858q0.07214 2.525 0.72144 2.525l-0.36072 0.72144 0.36072 1.8757h0.36072l1.0822-0.72144h0.36072v1.0822q-2.3808 0.72144-3.2465 0.72144h-0.36072v-0.36072q-2.2365-17.098-3.6793-17.098 0.79358 0 0.79358-0.72144-0.28858-2.8858-1.1543-2.8858l0.36072-0.72144q-2.2365-13.996-2.8858-15.944-0.57715-0.36072-1.8036-0.36072v-1.8036l-0.36072-0.72144q1.4429 0 1.4429-1.4429-0.72144-5.8437-1.4429-5.8437l0.36072-0.72144q-0.50501-1.4429-1.0822-1.4429l-1.4429 5.7715q0.36072 0 0.36072 0.36072-0.72144 0.36072-1.0822 0.36072v0.79358l-2.525 8.6573q0 1.5872-4.4008 14.862v0.72144q0 0.36072 0.36072 0.36072-1.8036 3.03-1.8036 3.3186 0 1.4429-1.4429 1.4429v0.72144h0.72144q0 2.8858-1.8036 2.8858 0 0.28858 0.36072 2.1643-3.9679 11.832-3.9679 12.697-0.57715 0-2.525-7.2144h0.36072l-0.72144-2.2365q0.72144-1.1543 0.72144-2.1643-2.9579-4.9779-2.9579-7.5751l-0.72144 0.36072 0.36072-1.8036q0-1.515-1.0822-1.515l0.36072-1.4429q0-0.57715-1.4429-5.0501h0.36072q-0.21643-2.1643-1.4429-2.1643l0.72144-1.0822v-0.36072l-1.8036-0.36072v-0.72144q1.0822 0 1.0822-0.36072 0-0.43286-1.8036-11.976h-0.72144q-1.1543 2.0922-2.525 8.6573h0.36072q-1.8036 5.4829-5.1222 18.902-0.36072 0-0.36072 0.36072 0.36072 0 0.36072 0.36072l-0.72144 0.36072 0.36072 0.72144v0.36072l-0.36072 0.72144h0.72144v0.72144q-0.72144 0-1.8036 1.8036h-0.36072q0.36072 0.72144 0.36072 1.0822 0 0.57715-0.72144 3.2465h-0.36072l-0.72144-0.36072 0.36072-0.72144v-2.1643q0-0.79358-0.36072-1.4429l0.72144-2.525h-0.72144l-0.36072 1.8036h-0.72144l-0.36072-2.525v-2.8858q0-0.36072 0.36072-0.36072 0-0.36072-0.36072-0.36072l0.36072-2.2365v-1.4429h-0.36072q0 2.6693-1.0822 2.9579h-0.36072q0-0.28858-0.36072-2.2365 0-0.72144 1.0822-3.6072l-1.0822-0.72144q-0.79358 0-1.0822 3.2465l-0.72144-0.36072 0.36072 0.72144v1.4429h-0.72144v-4.3286l-0.36072-2.525q0.86573 0 1.8036-3.9679-0.36072 0-0.36072-0.36072 0.36072 0 0.36072-0.36072l-0.72144-0.36072q-0.36072 2.525-1.0822 2.525-0.36072-1.9479-0.36072-2.1643 0-0.36072 0.72144-3.6793h-0.72144l0.36072-0.72144q-0.72144 0-0.72144-0.72144v-0.36072q0-0.50501 1.0822-1.0822 0 0.36072 0.36072 0.36072l2.1643-10.533h-0.36072q0.36072-0.6493 2.1643-10.822h-0.36072q0.72144-1.4429 1.4429-7.6473h-0.36072l0.72144-2.1643h-0.72144v-0.72144h0.72144v-0.72144q0-1.5872 0.72144-2.9579-0.72144-1.2986-0.72144-2.8858l0.72144 0.36072 0.36072-0.72144h-0.72144v-0.72144l0.72144 0.36072h0.36072v-0.36072l-0.36072-1.8036 0.72144 0.36072q0.72144-3.1022 0.72144-3.6072-0.36072 0-0.36072-0.36072 1.2264 0 2.525-5.4829v-0.36072l-0.36072-0.72144q2.3086-0.36072 7.6473-8.2966 0.36072 0 3.6072-4.0401zm2.1643 0.72144v0.36072l-0.36072 0.72144q0.21643 0 1.515 0.36072 0.6493-0.36072 1.0822-0.36072 0 0.79358 2.1643 1.515v0.36072h-2.8858q-0.36072 0-0.36072-0.36072l-0.79358 0.36072h-0.36072q0-0.6493-1.0822-1.8757v-0.72144q0.43286 0 1.0822-0.36072zm-13.419 8.7294q0.6493 0.36072 1.8757 0.36072v0.36072q-2.5972 0-2.5972 1.0822-0.50501 0-1.0822-1.0822v-0.36072q1.2264 0 1.8036-0.36072zm26.477 0.72144h1.1543q0 0.72144-0.79358 0.72144h-0.36072zm-27.559 1.0822v0.72144q0 0.72144-0.72144 0.72144v-0.72144q0.14429-0.72144 0.72144-0.72144zm-2.1643 5.8437 1.8036 0.36072v0.72144l-0.72144-0.36072-0.72144 0.36072-0.36072-0.72144zm45.379 0h0.72144q-0.36072 0.6493-0.36072 1.0822 0 0.14429 0.36072 1.4429-0.36072 0.72144-0.36072 1.0822h-0.72144l0.36072-0.72144q0-0.79358-0.36072-1.4429 0.36072-0.6493 0.36072-1.4429zm-45.739 3.2465 0.72144 0.36072q0-0.36072 0.36072-0.36072v1.0822h-1.0822zm47.904 2.1643h0.72144q0.72144 0.14429 0.72144 0.72144v0.72144q-0.57715 0-1.4429-1.4429zm-25.395 3.2465q0 0.50501-1.0822 1.0822l-0.36072-0.72144zm-4.6894 21.427v0.72144q1.4429-0.57715 1.4429-1.0822l-0.72144-0.36072q-0.72144 0.07214-0.72144 0.72144zm25.323 2.1643v1.0822h1.1543v-0.36072q0-0.72144-0.79358-0.72144zm-35.495 2.1643q0.07214 0.72144 0.72144 0.72144h0.36072v-0.36072q-0.36072-0.72144-0.36072-1.0822-0.72144 0.14429-0.72144 0.72144zm41.699 10.172v0.72144l0.36072 1.8036q0.72144 0 0.72144-0.72144-0.43286-1.8036-1.0822-1.8036zm-53.675 1.8036v1.8036q0 0.21643-0.72144 1.0822v1.0822q0.86573 0 1.4429-3.9679zm4.6894 3.9679v1.0822h0.36072q0.72144 0 0.72144-0.72144l-0.72144-0.36072zm13.058 0.72144-0.36072 0.72144h1.0822q0-0.72144-0.72144-0.72144zm-19.19 0.36072v0.79358h1.0822v-0.79358zm19.912 4.0401-0.36072 0.72144v0.72144q1.4429-0.57715 1.4429-1.0822-0.36072 0-1.0822-0.36072zm-2.8858 1.0822h1.0822v0.72144h-1.8036q0.14429-0.72144 0.72144-0.72144zm1.4429 3.9679h1.0822q-0.36072 0.72144-0.36072 1.0822h-0.72144zm33.042 0.36072v1.0822q0.72144 0 0.72144-0.72144zm-48.625 1.0822 0.72144 0.36072h0.36072v-1.0822h-0.36072q-0.72144 0.14429-0.72144 0.72144zm2.525 0-0.36072 0.72144h1.0822q0-0.72144-0.72144-0.72144zm16.305 1.0822v0.36072q0.36072 0.72144 0.36072 1.0822h0.36072l0.72144-0.36072q-0.36072-0.6493-0.36072-1.0822zm-4.3286 1.0822 0.72144 0.36072q0-0.36072 0.36072-0.36072v0.72144l-1.8036 0.36072v-0.36072q0.14429-0.72144 0.72144-0.72144zm38.453 1.0822h0.36072q0.72144 0.14429 0.72144 0.79358l-0.72144 0.36072h-0.36072zm-31.527 1.8757v1.0822q0 0.50501 1.0822 1.0822v-0.72144q-0.57715-1.4429-1.0822-1.4429zm30.445 5.7715h1.0822v0.72144h-0.36072q-0.72144 0-0.72144-0.72144zm10.172 0.72144q-1.7315 2.8858-4.4008 2.8858v-0.36072h-0.72144v0.72144h-0.72144q-0.72144 0-0.72144-0.72144 5.6994-2.525 6.5651-2.525zm-19.262 0.72144h1.4429v0.72144h-1.4429zm-18.108 2.1643v0.36072l1.8036-0.36072q0-0.72144-0.72144-0.72144h-0.36072q-0.72144 0.14429-0.72144 0.72144zm35.495 0.72144h0.43286v1.4429h-1.515v-0.36072q0-0.50501 1.0822-1.0822zm-33.331 4.4008v0.36072q0 0.72144-0.72144 0.72144v-0.36072q0.14429-0.72144 0.72144-0.72144zm24.673 1.4429h0.72144q1.1543 8.5852 2.1643 11.615l-0.36072 0.72144q1.0822 5.4108 1.0822 6.1322l-0.72144 0.36072h-0.36072q-1.0822-1.9479-3.2465-18.469zm8.2966 0.72145h0.36072q0.79358 0.0721 0.79358 0.72144v0.72144q-0.57715 0-1.1543-1.0822zm-46.028 0.36072 0.36072 0.72144q0 0.72144-0.72144 0.72144l-0.36072-0.72144q0.14429-0.72144 0.72144-0.72144zm47.182 3.6072q-0.36072 0.72144-0.36072 1.0822h-0.43286q-0.72144 0-0.72144-0.72144v-0.36072zm-0.79358 1.4429h0.43286v1.8036h-1.1543v-1.0822q0.14429-0.72144 0.72144-0.72144zm-1.0822 5.8437h0.36072l0.72144 0.36072q-0.36072 0.57715-0.36072 1.8036h-1.0822zm-13.78 2.525 2.2365 0.36072q-0.6493 1.4429-2.5972 1.4429v-1.0822zm8.008 3.6072q-0.86573 2.1643-1.8036 2.1643-1.4429-0.50501-1.4429-1.0822v-0.36072q2.3086-0.72144 3.2465-0.72144z"/>
 </g>
</svg>
